<svg xmlns="http://www.w3.org/2000/svg" viewBox="0 0 1280 640" width="1280" height="640">
  <defs>
    <linearGradient id="paper" x1="0" y1="0" x2="1" y2="1">
      <stop offset="0%" stop-color="#FFFFFF"/>
      <stop offset="58%" stop-color="#F6F7FB"/>
      <stop offset="100%" stop-color="#EDF1F7"/>
    </linearGradient>
    <linearGradient id="accentA" x1="0" y1="0" x2="1" y2="1">
      <stop offset="0%" stop-color="#E24B2D"/>
      <stop offset="100%" stop-color="#9F2F20"/>
    </linearGradient>
    <linearGradient id="accentB" x1="0" y1="0" x2="1" y2="0">
      <stop offset="0%" stop-color="#087F7A"/>
      <stop offset="100%" stop-color="#5B55D6"/>
    </linearGradient>
    <linearGradient id="softTint" x1="0" y1="0" x2="1" y2="1">
      <stop offset="0%" stop-color="#E24B2D" stop-opacity="0.16"/>
      <stop offset="52%" stop-color="#087F7A" stop-opacity="0.08"/>
      <stop offset="100%" stop-color="#5B55D6" stop-opacity="0.13"/>
    </linearGradient>
    <pattern id="grid" width="88" height="88" patternUnits="userSpaceOnUse">
      <path d="M 88 0 L 0 0 0 88" fill="none" stroke="#16181D" stroke-opacity="0.06" stroke-width="1"/>
    </pattern>
    <filter id="shadow" x="-20%" y="-20%" width="140%" height="140%">
      <feDropShadow dx="0" dy="24" stdDeviation="28" flood-color="#272D39" flood-opacity="0.16"/>
    </filter>
  </defs>

  <rect width="1280" height="640" fill="url(#paper)"/>
  <rect width="1280" height="640" fill="url(#grid)"/>
  <path d="M 0 0 H 1280 V 180 C 1060 126 900 136 766 206 C 589 298 402 260 230 174 C 132 125 56 101 0 96 Z" fill="url(#softTint)"/>
  <path d="M 0 640 H 1280 V 504 C 1090 540 940 520 796 455 C 610 371 414 398 248 487 C 134 548 52 568 0 566 Z" fill="#FFFFFF" opacity="0.62"/>

  <g transform="translate(92 112)">
    <text x="0" y="0" fill="#9F2F20" font-family="Inter, ui-sans-serif, system-ui, -apple-system, BlinkMacSystemFont, Segoe UI, sans-serif" font-size="18" font-weight="850">MCP CONTROL PLANE</text>
    <text x="0" y="110" fill="#16181D" font-family="Inter, ui-sans-serif, system-ui, -apple-system, BlinkMacSystemFont, Segoe UI, sans-serif" font-size="82" font-weight="850">AgentDispatch</text>
    <text x="0" y="176" fill="#626B7A" font-family="Inter, ui-sans-serif, system-ui, -apple-system, BlinkMacSystemFont, Segoe UI, sans-serif" font-size="34" font-weight="520">Spawn durable cloud subagents from any</text>
    <text x="0" y="224" fill="#626B7A" font-family="Inter, ui-sans-serif, system-ui, -apple-system, BlinkMacSystemFont, Segoe UI, sans-serif" font-size="34" font-weight="520">MCP-capable lead agent.</text>

    <g transform="translate(0 296)">
      <rect x="0" y="0" width="178" height="42" rx="8" fill="#16181D"/>
      <text x="89" y="27" text-anchor="middle" fill="#FFFFFF" font-family="Inter, ui-sans-serif, system-ui, sans-serif" font-size="16" font-weight="800">spawn_cloud_agent</text>
      <rect x="196" y="0" width="128" height="42" rx="8" fill="#FFFFFF" stroke="#16181D" stroke-opacity="0.16"/>
      <text x="260" y="27" text-anchor="middle" fill="#16181D" font-family="Inter, ui-sans-serif, system-ui, sans-serif" font-size="16" font-weight="780">task_id</text>
      <rect x="342" y="0" width="176" height="42" rx="8" fill="#FFFFFF" stroke="#16181D" stroke-opacity="0.16"/>
      <text x="430" y="27" text-anchor="middle" fill="#16181D" font-family="Inter, ui-sans-serif, system-ui, sans-serif" font-size="16" font-weight="780">A2A / MCP / HTTP</text>
    </g>
  </g>

  <g transform="translate(790 156)" filter="url(#shadow)">
    <rect x="0" y="0" width="392" height="314" rx="18" fill="#FFFFFF" stroke="#16181D" stroke-opacity="0.1"/>
    <g transform="translate(72 154)">
      <line x1="-80" y1="0" x2="0" y2="0" stroke="#16181D" stroke-opacity="0.26" stroke-width="4" stroke-linecap="round"/>
      <path d="M 0 0 C 62 0 70 -92 132 -92 H 170" fill="none" stroke="url(#accentA)" stroke-width="7" stroke-linecap="round"/>
      <line x1="0" y1="0" x2="210" y2="0" stroke="url(#accentB)" stroke-width="7" stroke-linecap="round"/>
      <path d="M 0 0 C 62 0 70 92 132 92 H 170" fill="none" stroke="#5B55D6" stroke-width="7" stroke-linecap="round"/>
      <circle cx="-80" cy="0" r="30" fill="#F6F7FB" stroke="#16181D" stroke-opacity="0.22" stroke-width="4"/>
      <circle cx="-80" cy="0" r="9" fill="#16181D"/>
      <circle cx="0" cy="0" r="8" fill="#E24B2D"/>
      <circle cx="170" cy="-92" r="25" fill="#FFFFFF" stroke="#E24B2D" stroke-width="5"/>
      <circle cx="170" cy="-92" r="8" fill="#E24B2D"/>
      <circle cx="210" cy="0" r="25" fill="#FFFFFF" stroke="#087F7A" stroke-width="5"/>
      <circle cx="210" cy="0" r="8" fill="#087F7A"/>
      <circle cx="170" cy="92" r="25" fill="#FFFFFF" stroke="#5B55D6" stroke-width="5"/>
      <circle cx="170" cy="92" r="8" fill="#5B55D6"/>
    </g>
    <g transform="translate(36 36)">
      <rect x="0" y="0" width="76" height="28" rx="14" fill="#F0F3F8"/>
      <text x="38" y="19" text-anchor="middle" fill="#626B7A" font-family="Inter, ui-sans-serif, system-ui, sans-serif" font-size="12" font-weight="800">Lead</text>
      <rect x="236" y="0" width="96" height="28" rx="14" fill="#F0F3F8"/>
      <text x="284" y="19" text-anchor="middle" fill="#626B7A" font-family="Inter, ui-sans-serif, system-ui, sans-serif" font-size="12" font-weight="800">Cloud</text>
    </g>
  </g>
</svg>
